<svg class="icon" viewBox="0 0 1260 1024" xmlns="http://www.w3.org/2000/svg" width="157.5" height="128"><defs><style/></defs><path d="M994.987 921.721H47.23C20.86 921.721 0 942.266 0 968.086v8.895c0 24.953 20.86 46.364 47.23 46.364h947.757c26.37 0 47.23-21.411 47.23-46.364v-8.895c0-25.82-20.86-46.365-47.23-46.365zM562.435 522.624c91.785 176.406 312.587 245.913 492.535 155.94 179.869-89.975 251.659-306.526 159.009-482.932-91.785-176.405-312.587-246.778-492.535-155.86-179.869 89.974-250.793 306.447-159.009 482.852zm206.318-393.823c129.018-64.075 288.027-14.247 354.386 112.33 65.414 127.365 14.484 282.36-114.534 347.458-129.962 65.02-288.971 15.114-354.385-112.25C587.94 349.76 638.79 193.9 768.753 128.8zM47.23 715.954h535.2c-34.479-29.44-65.415-63.289-90.84-101.545H47.23C20.86 614.409 0 635.74 0 660.694v8.895c0 25.898 20.86 46.365 47.23 46.365zm0-303.77h371.625c-1.81-16.059-2.677-32.117-2.677-48.175 0-18.656.866-35.58 3.621-53.45H47.23C20.86 310.56 0 331.106 0 356.925v8.895c0 25.82 20.86 46.365 47.23 46.365zm0-307.391h449.791c26.37-38.336 58.172-72.184 95.406-101.546H47.23C20.86 3.247 0 24.58 0 49.533v8.895c0 25.898 20.86 46.365 47.23 46.365zm1207.603 848.179L1151.24 754.289c-11.808-21.41-39.044-30.306-60.849-18.734l-10.863 5.352c-21.883 10.706-30.936 37.391-19.994 59.668l103.592 197.817c11.808 22.277 39.044 31.172 60.849 19.6l10.863-5.352c21.804-10.706 30.936-37.391 19.994-59.668z"/></svg>