<svg class="icon" viewBox="0 0 1024 1024" xmlns="http://www.w3.org/2000/svg" width="128" height="128"><defs><style/></defs><path d="M935.731 653.025L653.025 935.731a91.607 91.607 0 0 1-129.577 0L101.683 513.966a137.42 137.42 0 0 1-40.243-97.198V130.15a68.71 68.71 0 0 1 68.71-68.71h286.638a137.42 137.42 0 0 1 97.178 40.243L935.731 523.47a91.607 91.607 0 0 1 0 129.577zM225.28 286.72a61.44 61.44 0 1 0 0-122.88 61.44 61.44 0 0 0 0 122.88zm483.041 257.761l-163.84 163.84A40.96 40.96 0 0 0 602.4 766.24l163.84-163.84a40.96 40.96 0 0 0-57.918-57.918zm-122.88-122.88l-163.84 163.84a40.96 40.96 0 0 0 57.918 57.918l163.84-163.84A40.96 40.96 0 0 0 585.44 421.6z"/></svg>