<svg class="icon" viewBox="0 0 1024 1024" xmlns="http://www.w3.org/2000/svg" width="16" height="16"><defs><style/></defs><path d="M803.72 559.255c-5.602 0-11.204.3-16.806.873-.452.03-.874.12-1.295.18a528.264 528.264 0 0 0-127.277-54.09 272.414 272.414 0 0 0 48.52-43.55c.873-.874 1.776-2.049 2.65-2.952l7.95-9.728c4.127-5.3 7.952-10.602 11.475-16.204a211.426 211.426 0 0 0 17.68-30.63c2.349-4.426 4.427-8.824 6.174-13.25.3-.603.3-.874.3-1.176a262.536 262.536 0 0 0 20.33-101.616A265.668 265.668 0 0 0 631.145 52.043a268.65 268.65 0 0 0-66.56-24.455 264.674 264.674 0 0 0-46.26-5.602c-3.253-.301-6.777-.301-10.3-.301-17.98 0-35.359 1.777-52.435 5C334.216 51.14 242.598 158.66 242.598 287.111a264.855 264.855 0 0 0 115.17 218.864v.211c-75.927 20.902-144.234 57.043-199.952 104.81C67.584 687.977 10.18 796.792 10.511 917.534c0 4.638 0 9.276.331 13.945h66.35c-.663-4.639-.663-9.277-.663-13.945.331-99.207 46.773-189.44 124.747-256.452C278.92 594.402 387.072 552.6 507.814 552.6h.33c67.043 0 130.2 13.372 186.61 36.442a215.371 215.371 0 0 0-107.038 186.127 216.064 216.064 0 0 0 215.943 215.944c119.296 0 216.215-96.618 216.215-215.944S923.016 559.255 803.72 559.255zM308.887 287.112a197.873 197.873 0 0 1 58.337-140.8 198.325 198.325 0 0 1 140.8-58.037c7.078 0 14.156.301 20.902.873a201.879 201.879 0 0 1 119.597 57.133 197.873 197.873 0 0 1 58.338 140.8c0 29.757-6.475 58.037-18.251 83.065a91.558 91.558 0 0 1-5.3 10.601c-1.778 3.825-4.127 7.65-6.476 11.475-1.175 2.048-2.35 4.126-3.825 6.174v.301a243.652 243.652 0 0 1-22.106 26.805l-2.35 2.35a184.23 184.23 0 0 1-34.755 27.677 194.71 194.71 0 0 1-105.472 30.63h-1.747c-13.553 0-27.106-1.476-39.755-4.427-.603 0-.874 0-1.175-.301a196.066 196.066 0 0 1-98.394-53.61 197.391 197.391 0 0 1-58.368-140.71zm456.824 601.78L661.715 784.896l46.833-47.134 57.133 57.163 91.618-91.317 41.833-41.833 46.833 46.833-180.254 180.284z"/></svg>