<svg class="icon" viewBox="0 0 1025 1024" xmlns="http://www.w3.org/2000/svg" width="128.125" height="128"><defs><style/></defs><path d="M384 0v96c73.472 0 144.704 14.368 211.712 42.72 64.768 27.392 122.944 66.624 172.96 116.608s89.216 108.192 116.64 172.96c28.352 67.008 42.72 138.24 42.72 211.712h96c0-353.472-286.528-640-640-640z"/><path d="M384 192v96c94.016 0 182.432 36.608 248.896 103.104S736 545.984 736 640h96c0-247.424-200.576-448-448-448z"/><path d="M480 384l-64 64-224 64L0 928l25.376 25.376 232.8-232.8A64.325 64.325 0 0 1 256 704c0-35.36 28.64-64 64-64s64 28.64 64 64-28.64 64-64 64a64.325 64.325 0 0 1-16.576-2.176l-232.8 232.8L96 1024l416-192 64-224 64-64-160-160z"/></svg>