<svg class="icon" viewBox="0 0 1170 1024" xmlns="http://www.w3.org/2000/svg" width="411.328" height="360"><defs><style/></defs><path d="M1024 0H146.286C65.829 0 0 65.829 0 146.286v585.143c0 80.457 65.829 146.285 146.286 146.285H548.57v73.143H256c-21.943 0-36.571 14.629-36.571 36.572S234.057 1024 256 1024h658.286c21.943 0 36.571-14.629 36.571-36.571s-14.628-36.572-36.571-36.572H621.714v-73.143H1024c80.457 0 146.286-65.828 146.286-146.285V146.286C1170.286 65.829 1104.457 0 1024 0zm73.143 731.429c0 43.885-29.257 73.142-73.143 73.142H146.286c-43.886 0-73.143-29.257-73.143-73.142V146.286c0-43.886 29.257-73.143 73.143-73.143H1024c43.886 0 73.143 29.257 73.143 73.143v585.143z"/><path d="M958.171 336.457L841.143 453.486l-190.172-256c-7.314-7.315-21.942-14.629-36.571-14.629-7.314 0-21.943 7.314-29.257 21.943L468.114 504.686 358.4 343.77c-7.314-7.314-14.629-14.628-29.257-14.628s-21.943 0-29.257 7.314L153.6 482.743c-7.314 14.628-7.314 43.886 0 58.514 7.314 14.629 36.571 14.629 51.2 0L321.829 424.23 446.17 607.086c7.315 7.314 14.629 14.628 29.258 14.628h7.314c14.628 0 21.943-7.314 29.257-21.943l117.029-307.2 182.857 241.372c7.314 7.314 14.628 14.628 29.257 14.628 7.314 0 21.943 0 29.257-7.314l146.286-146.286c14.628-14.628 14.628-36.571 0-51.2-14.629-14.628-43.886-14.628-58.515-7.314z"/></svg>