<svg class="icon" viewBox="0 0 1024 1024" xmlns="http://www.w3.org/2000/svg" width="16" height="16"><defs><style/></defs><path d="M512 0a256 256 0 0 1 119.662 482.377c27.94 9.436 53.54 22.528 72.411 39.57l.366 1.024 1.17 1.024c7.314 7.607 25.161 22.309 39.79 25.893l5.998.731c15.14 0 37.23-17.554 45.494-26.112a45.056 45.056 0 0 1 43.155-11.63l5.485 1.902 66.56 36.864a42.057 42.057 0 0 1 17.774 44.252l-4.681 13.239a54.71 54.71 0 0 0-2.633 14.994c0 28.745 21.504 52.663 49.298 56.32l7.68.585h2.194c14.41 0 26.04 9.874 31.16 25.6l1.828 7.168c.585 3.145 5.632 30.647 5.632 52.882 0 23.406-5.559 52.663-5.632 52.956-3.218 17.335-13.458 29.33-26.697 32.11l-5.852.585h-2.633a57.051 57.051 0 0 0-56.978 56.905c0 7.607 2.926 16.091 4.388 19.895l.732 1.828a41.18 41.18 0 0 1-8.631 45.13l-5.413 4.607-1.609 1.024-65.975 36.499a43.008 43.008 0 0 1-18.139 4.096 44.617 44.617 0 0 1-32.402-13.897c-8.412-9.216-31.013-28.38-46.812-28.38-15.58 0-38.4 19.017-46.445 27.794a44.178 44.178 0 0 1-42.496 12.435l-6.437-2.195-65.317-36.278a42.277 42.277 0 0 1-17.7-44.252l4.608-13.312a54.857 54.857 0 0 0 2.633-14.921 57.051 57.051 0 0 0-49.225-56.393l-7.68-.585h-2.268c-14.336 0-25.892-9.801-31.158-25.6l-1.829-7.168a336.896 336.896 0 0 1-5.559-52.883c0-22.235 5.047-49.737 5.559-52.809 3.365-17.48 13.531-29.476 26.77-32.183l5.852-.658h2.633c31.451 0 56.905-25.527 56.905-56.905 0-7.534-2.853-16.091-4.315-19.822l-.732-1.828a41.18 41.18 0 0 1 7.826-44.325 246.784 246.784 0 0 0-52.077-7.46L512 550.327A424.229 424.229 0 0 0 90.478 926.28l-.878 9.948h295.058a43.886 43.886 0 0 1 43.3 36.717l.586 7.095a43.886 43.886 0 0 1-43.886 43.886L55.515 1024C26.551 1024 0 1007.616 0 974.555a512.22 512.22 0 0 1 385.243-496.2A256 256 0 0 1 512 0zm168.229 585.874l-41.18 24.43c2.194 7.387 4.828 18.286 4.828 29.77 0 49.297-26.112 90.696-71.388 97.133a241.371 241.371 0 0 0-2.78 31.451c.293 10.533 1.171 21.065 2.78 31.452 45.276 6.436 74.46 42.935 74.46 92.306 0 8.558-1.463 16.896-3.146 23.698l-1.682 6.144 38.108 23.04a168.229 168.229 0 0 1 16.31-14.848c17.555-13.897 39.059-15.652 54.93-15.652 16.019 0 39.717 6.217 57.345 20.333l8.411 7.315 8.046 7.826 39.79-23.771a105.18 105.18 0 0 1-4.828-29.77c0-49.371 27.21-90.185 72.412-96.548l1.828-14.994c.585-5.56.951-11.338.951-16.53 0-10.24-1.536-23.26-2.706-31.452-45.349-6.437-79.14-48.201-79.068-97.5.073-6.802.878-13.531 2.195-20.114l2.633-9.728-39.424-23.698a159.451 159.451 0 0 1-16.238 14.263c-17.189 13.02-33.646 19.748-49.079 19.748a102.912 102.912 0 0 1-69.266-30.135l-4.242-4.169zm68.754 79.945c55.369 0 100.498 45.13 100.498 100.499 0 55.442-45.129 100.571-100.498 100.571A100.645 100.645 0 0 1 648.41 766.318c0-55.37 45.13-100.499 100.572-100.499zm-.512 56.101a43.886 43.886 0 1 0 .146 87.845 43.886 43.886 0 0 0-.146-87.845zM512 87.771a168.229 168.229 0 1 0 0 336.458 168.229 168.229 0 0 0 0-336.458z"/></svg>