<svg class="icon" viewBox="0 0 1024 1024" xmlns="http://www.w3.org/2000/svg" width="128" height="128"><defs><style/></defs><path d="M487.253 1018.88a128 128 0 0 1-128-109.653l-5.546-47.36a418.56 418.56 0 0 1-75.094-42.667l-47.36 19.627a128 128 0 0 1-157.866-51.2L49.493 748.8a128 128 0 0 1 31.574-170.667l38.4-29.013v-40.533a341.333 341.333 0 0 1 0-42.667l-36.694-27.307A128 128 0 0 1 47.36 271.787l22.613-39.254a128 128 0 0 1 157.014-55.466l51.2 19.626a418.56 418.56 0 0 1 75.093-42.666l5.547-42.667a128 128 0 0 1 125.44-108.8h50.773a128 128 0 0 1 128 109.227l6.827 47.786a377.173 377.173 0 0 1 75.093 42.667l47.36-19.627a128 128 0 0 1 157.867 51.2l23.893 38.827a128 128 0 0 1-31.573 170.667l-38.4 29.013a346.88 346.88 0 0 1 2.133 42.667 337.493 337.493 0 0 1-2.133 40.106l36.266 26.88a128 128 0 0 1 35.414 167.254l-22.614 39.253a128 128 0 0 1-157.013 55.467l-51.627-20.054a381.013 381.013 0 0 1-74.666 42.667l-6.827 46.507a128 128 0 0 1-125.013 109.653h-49.494zM280.747 732.587a69.12 69.12 0 0 1 42.666 14.08 317.867 317.867 0 0 0 70.4 39.253 69.547 69.547 0 0 1 42.667 54.613l8.533 56.32a42.667 42.667 0 0 0 42.667 36.694h49.493a42.667 42.667 0 0 0 42.667-36.694l8.107-55.04a69.12 69.12 0 0 1 42.666-55.466 291.413 291.413 0 0 0 68.694-38.827A72.96 72.96 0 0 1 768 737.707l58.027 22.186a42.667 42.667 0 0 0 52.48-18.346l22.613-39.254a42.667 42.667 0 0 0-11.947-55.893l-42.666-32a68.693 68.693 0 0 1-27.734-64.853 341.333 341.333 0 0 0 2.56-38.827 328.107 328.107 0 0 0-2.56-38.827 69.12 69.12 0 0 1 27.734-65.28l44.8-33.706a42.667 42.667 0 0 0 10.24-56.32L878.08 277.76a42.667 42.667 0 0 0-52.907-17.067l-54.613 22.614a71.68 71.68 0 0 1-69.973-8.96 316.587 316.587 0 0 0-69.547-39.254 70.4 70.4 0 0 1-42.667-54.613l-8.533-56.747a42.667 42.667 0 0 0-42.667-36.266h-51.2a42.667 42.667 0 0 0-42.666 37.546l-6.827 53.334a69.973 69.973 0 0 1-42.667 56.32 325.547 325.547 0 0 0-69.12 38.826A72.107 72.107 0 0 1 256 283.307l-59.733-22.614a42.667 42.667 0 0 0-52.48 18.774l-22.614 39.253a42.667 42.667 0 0 0 11.947 55.467l42.667 32.853a67.84 67.84 0 0 1 27.733 65.28 321.707 321.707 0 0 0-2.56 38.4 295.253 295.253 0 0 0 2.56 38.4 69.12 69.12 0 0 1-27.733 65.28l-44.8 33.707a42.667 42.667 0 0 0-10.667 56.746l23.893 38.4a42.667 42.667 0 0 0 52.907 17.067l54.613-22.613a77.227 77.227 0 0 1 29.014-5.12zm381.44 132.266zm-298.667 0zm308.053-11.52zM128 546.133zm0-70.4zm770.56 0zm-777.813-15.36zm240.64-304.64zM512 710.4a197.973 197.973 0 1 1 140.373-58.027A198.827 198.827 0 0 1 512 708.693zm0-311.04A112.64 112.64 0 1 0 625.067 512 113.067 113.067 0 0 0 512 397.653z"/></svg>