<svg class="icon" viewBox="0 0 1024 1024" xmlns="http://www.w3.org/2000/svg" width="16" height="16"><defs><style/></defs><path d="M820.224 790.528c-60.416-29.696-38.912-6.144-116.736-38.912-80.896-32.768-100.352-44.032-100.352-44.032l-1.024-75.776s30.72-22.528 39.936-94.208c19.456 5.12 25.6-21.504 26.624-38.912 1.024-16.384 11.264-69.632-12.288-64.512 5.12-34.816 9.216-67.584 6.144-83.968-5.12-59.392-47.104-120.832-150.528-125.952-88.064 5.12-145.408 66.56-151.552 125.952-2.048 16.384 2.048 49.152 6.144 83.968-23.552-5.12-12.288 48.128-12.288 64.512 1.024 17.408 7.168 45.056 26.624 38.912 9.216 71.68 38.912 95.232 38.912 95.232l-1.024 76.8s-19.456 11.264-100.352 45.056c-78.848 32.768-56.32 8.192-116.736 37.888C137.216 717.824 96.256 619.52 96.256 512 96.256 282.624 282.624 96.256 512 96.256S927.744 282.624 927.744 512c0 107.52-40.96 204.8-107.52 278.528zM512 0C229.376 0 0 229.376 0 512s229.376 512 512 512 512-229.376 512-512C1024 228.352 795.648 0 512 0z"/></svg>